<?xml version="1.0" standalone="no"?>
<!DOCTYPE svg PUBLIC "-//W3C//DTD SVG 20010904//EN"
 "http://www.w3.org/TR/2001/REC-SVG-20010904/DTD/svg10.dtd">
<svg version="1.0" xmlns="http://www.w3.org/2000/svg"
 width="800.000000pt" height="1124.000000pt" viewBox="0 0 800.000000 1124.000000"
 preserveAspectRatio="xMidYMid meet">
<metadata>
Created by potrace 1.16, written by Peter Selinger 2001-2019
</metadata>
<g transform="translate(0.000000,1124.000000) scale(0.100000,-0.100000)"
fill="#000000" stroke="none">
<path d="M2080 11226 c-347 -77 -610 -320 -717 -661 l-28 -90 0 -4640 c0
-4544 0 -4641 19 -4710 50 -182 136 -325 274 -456 97 -92 198 -155 326 -203
l81 -31 399 -3 c389 -3 398 -4 393 -23 -5 -18 1 -19 158 -19 149 0 163 1 161
18 -1 16 18 17 279 17 154 -1 354 -6 444 -13 143 -10 165 -10 175 3 10 13 138
15 966 17 l955 3 70 26 c324 121 553 380 619 701 14 69 16 389 16 3208 l0
3130 30 0 30 0 0 585 0 585 -30 0 -30 0 0 874 c0 726 -2 886 -15 943 -80 378
-360 658 -738 738 -58 13 -338 15 -1925 14 -1422 -1 -1870 -4 -1912 -13z m623
-273 c-28 -166 33 -304 169 -379 l53 -29 1090 0 1090 0 43 23 c144 77 208 215
179 386 l-9 48 279 -5 c302 -5 338 -10 462 -68 183 -85 317 -236 383 -434 l23
-70 3 -4560 c3 -5126 10 -4640 -76 -4815 -82 -168 -229 -294 -420 -359 l-77
-26 -887 -3 -887 -3 8 28 c5 15 105 326 224 691 l215 663 -29 127 c-93 403
-303 1213 -339 1308 l-10 26 -33 -21 c-52 -32 -202 -78 -325 -100 -431 -78
-1018 -26 -1189 105 -18 14 -33 23 -33 21 0 -16 46 -149 63 -182 19 -37 23
-101 63 -950 23 -500 50 -1070 58 -1265 9 -195 19 -377 22 -403 l5 -48 -328 3
c-325 4 -329 4 -408 31 -116 39 -199 91 -292 183 -67 67 -89 98 -127 175 -84
175 -77 -306 -74 4814 l3 4560 27 80 c75 220 243 387 463 459 83 27 159 34
398 35 l228 1 -8 -47z m1017 -8573 c139 -179 255 -330 257 -337 5 -11 -264
-1359 -274 -1375 -2 -5 -121 -8 -264 -8 -255 0 -259 0 -259 21 0 18 34 279
220 1720 22 169 40 313 40 320 0 20 4 15 280 -341z"/>
<path d="M1962 9088 c-15 -15 -17 -774 -2 -798 8 -13 64 -15 383 -18 235 -2
384 1 400 7 l27 11 0 393 c0 292 -3 396 -12 405 -9 9 -111 12 -398 12 -287 0
-389 -3 -398 -12z"/>
<path d="M3191 8059 c-104 -20 -207 -100 -276 -213 -31 -50 -48 -68 -74 -77
-52 -18 -114 -85 -134 -148 -23 -73 -21 -131 8 -247 36 -145 111 -290 189
-369 170 -170 391 -175 541 -14 61 66 135 190 135 225 0 33 25 81 50 94 11 6
20 15 20 21 0 6 16 42 35 81 23 45 39 95 45 141 15 103 23 118 86 151 119 63
167 176 102 245 -24 26 -38 27 -38 2 0 -11 -11 -33 -25 -48 l-24 -28 -1 29 c0
35 -35 112 -54 119 -10 4 -16 -6 -21 -30 -3 -19 -11 -47 -16 -61 l-10 -26 -44
51 c-59 67 -117 91 -248 103 -121 11 -187 11 -246 -1z"/>
<path d="M4180 7721 c-6 -13 -10 -157 -10 -400 l0 -380 22 -15 c19 -14 74 -16
395 -16 360 0 374 1 393 20 19 19 20 33 20 399 0 332 -2 382 -16 395 -13 14
-64 16 -404 16 -375 0 -390 -1 -400 -19z"/>
<path d="M5296 7724 c-14 -13 -16 -60 -16 -357 l0 -342 35 49 c19 27 35 54 35
61 0 19 59 75 95 90 108 46 236 -27 252 -143 6 -48 -10 -102 -44 -142 l-25
-30 219 0 c182 0 222 3 241 16 l22 15 0 380 c0 243 -4 387 -10 400 -10 18 -25
19 -400 19 -340 0 -391 -2 -404 -16z"/>
<path d="M4960 6616 l-180 -233 -47 9 c-26 6 -74 25 -107 43 -84 46 -234 84
-391 100 -38 4 -86 19 -130 41 -83 40 -191 58 -305 48 l-75 -6 -165 74 -165
74 -205 -14 -205 -13 -33 -37 c-19 -20 -59 -76 -89 -124 -31 -49 -60 -88 -65
-88 -20 0 -97 -84 -116 -128 -14 -31 -39 -173 -76 -427 -31 -209 -83 -560
-116 -780 -166 -1117 -180 -1215 -170 -1239 17 -45 46 -56 148 -56 l93 0 -7
-122 c-4 -68 -8 -130 -8 -138 -2 -32 253 -73 459 -73 178 0 243 7 526 63 328
65 469 72 642 33 38 -8 70 -13 73 -11 4 5 -32 477 -126 1643 -22 275 -40 512
-40 527 0 25 3 27 63 32 34 3 251 14 481 26 231 11 420 21 421 22 1 2 72 192
157 423 86 231 159 427 162 436 5 12 -18 29 -98 72 -57 31 -109 57 -114 57 -6
0 -92 -105 -192 -234z"/>
<path d="M3660 316 c0 0 -7 -57 -15 -125 -8 -69 -13 -126 -12 -127 4 -3 562
-64 591 -64 l29 0 -6 55 c-11 108 -87 194 -189 214 -29 6 -114 16 -188 22 -74
6 -152 14 -172 19 -21 4 -38 7 -38 6z"/>
<path d="M2850 123 l0 -123 309 0 308 0 -8 51 c-12 77 -54 135 -124 172 -38
21 -54 22 -262 22 l-223 0 0 -122z"/>
</g>
</svg>
